<?xml version="1.0" standalone="no"?>
<!DOCTYPE svg PUBLIC "-//W3C//DTD SVG 20010904//EN"
 "http://www.w3.org/TR/2001/REC-SVG-20010904/DTD/svg10.dtd">
<svg version="1.0" xmlns="http://www.w3.org/2000/svg"
 width="180.000000pt" height="180.000000pt" viewBox="0 0 180.000000 180.000000"
 preserveAspectRatio="xMidYMid meet">
<metadata>
Created by potrace 1.11, written by Peter Selinger 2001-2013
</metadata>
<g transform="translate(0.000000,180.000000) scale(0.100000,-0.100000)"
fill="#000000" stroke="none">
<path d="M837 1463 c-4 -3 -7 -19 -7 -35 0 -23 4 -28 25 -28 14 0 25 4 25 10
0 5 -7 7 -15 4 -8 -4 -15 -1 -15 5 0 6 6 11 13 12 6 0 3 4 -8 9 -19 8 -19 8 5
18 22 10 23 11 4 11 -11 1 -24 -2 -27 -6z"/>
<path d="M944 1456 c-11 -28 1 -51 26 -53 22 -1 22 -1 3 4 -28 6 -30 33 -3 40
11 3 17 9 14 14 -8 14 -34 11 -40 -5z"/>
<path d="M746 1428 c-6 -23 -6 -23 -22 -3 l-16 20 4 -20 c2 -13 11 -19 23 -18
11 1 23 -4 27 -10 5 -8 8 -5 8 8 0 11 -4 26 -9 33 -6 10 -10 8 -15 -10z"/>
<path d="M1055 1435 c-3 -8 -7 -22 -10 -30 -5 -18 11 -20 18 -2 3 7 9 2 15
-13 l11 -25 0 26 c1 14 6 30 11 37 7 9 7 9 -2 2 -18 -15 -38 -12 -32 5 4 8 3
15 0 15 -4 0 -9 -7 -11 -15z"/>
<path d="M624 1385 c-6 -24 -7 -24 -20 -8 -17 22 -18 12 -2 -22 14 -32 28 -32
28 0 0 14 5 25 10 25 6 0 10 -7 10 -15 0 -8 5 -15 10 -15 6 0 4 13 -5 30 -19
37 -23 37 -31 5z"/>
<path d="M1160 1385 c-16 -30 -9 -40 19 -25 23 12 28 1 9 -18 -7 -7 -8 -12 -2
-12 13 0 37 50 29 58 -3 3 -11 0 -17 -6 -18 -18 -30 -14 -23 8 9 28 1 25 -15
-5z"/>
<path d="M505 1330 c-15 -17 -16 -20 -3 -15 10 4 22 -2 33 -17 14 -19 16 -20
10 -3 -4 11 -8 28 -9 38 0 22 -9 22 -31 -3z"/>
<path d="M783 1335 c-210 -46 -373 -232 -399 -456 -6 -56 7 -165 27 -217 l11
-27 14 35 c19 45 18 44 46 26 29 -19 38 -13 38 23 0 41 14 55 38 42 29 -15 30
-15 37 19 4 16 10 32 15 35 13 8 40 -6 40 -22 0 -26 34 -9 42 22 4 17 21 39
38 50 18 11 50 46 72 78 l42 58 20 -21 c12 -11 28 -42 37 -68 10 -31 21 -47
33 -47 25 0 34 -23 28 -68 -4 -31 -1 -43 13 -54 11 -7 22 -13 26 -13 4 0 24
27 45 60 22 33 43 60 48 60 4 0 34 -26 65 -58 51 -53 59 -58 85 -51 24 7 36 3
65 -20 20 -15 41 -26 48 -24 6 2 14 -1 18 -6 21 -35 45 41 45 146 0 140 -48
253 -149 354 -132 133 -306 184 -488 144z m333 -166 c10 -17 -13 -36 -27 -22
-12 12 -4 33 11 33 5 0 12 -5 16 -11z m-126 -69 c28 0 34 -18 8 -22 -14 -2
-25 -12 -29 -28 l-6 -25 -4 25 c-3 16 -13 26 -29 31 l-25 6 28 11 c17 8 28 20
28 34 2 19 3 18 6 -4 3 -19 10 -28 23 -28z"/>
<path d="M1302 1338 c2 -6 10 -14 16 -16 7 -2 10 2 6 12 -7 18 -28 22 -22 4z"/>
<path d="M1267 1322 c-26 -28 -22 -43 8 -32 27 10 32 2 13 -20 -7 -8 -3 -6 10
4 30 26 28 40 -5 31 -23 -5 -25 -4 -13 10 18 22 7 29 -13 7z"/>
<path d="M432 1268 c-17 -17 -15 -32 6 -51 24 -22 29 -21 43 6 11 20 11 21 -4
8 -23 -18 -54 4 -36 26 15 17 7 27 -9 11z"/>
<path d="M1390 1169 l-25 -20 23 6 c21 6 23 4 17 -17 -6 -20 -6 -21 6 -7 8 9
21 19 29 22 9 3 6 6 -9 6 -20 1 -21 3 -11 16 18 22 -1 18 -30 -6z"/>
<path d="M370 1161 c15 -29 13 -33 -12 -21 -23 11 -23 11 1 -9 13 -12 27 -21
32 -21 13 0 11 24 -3 39 -11 11 -8 12 12 7 24 -7 24 -6 6 8 -29 23 -49 21 -36
-3z"/>
<path d="M1447 1073 c-15 -2 -25 -8 -22 -13 3 -5 19 -7 35 -3 37 7 39 -10 4
-26 -15 -6 -24 -14 -22 -17 7 -6 58 17 58 27 0 14 -12 39 -19 38 -3 -1 -18 -4
-34 -6z"/>
<path d="M307 1064 c-13 -13 -7 -42 9 -48 23 -9 52 -7 37 2 -6 4 -11 16 -10
27 2 19 -23 32 -36 19z m19 -31 c-10 -10 -19 5 -10 18 6 11 8 11 12 0 2 -7 1
-15 -2 -18z"/>
<path d="M856 898 c3 -40 10 -85 15 -99 7 -17 6 -35 -1 -53 -15 -40 -13 -46
15 -46 31 0 31 -6 3 -31 -31 -25 -189 -29 -168 -4 20 24 3 64 -34 82 -19 9
-38 25 -43 36 -9 19 -10 20 -16 2 -6 -13 3 -28 33 -56 34 -33 39 -42 30 -59
-11 -20 -35 -26 -127 -33 -42 -3 -53 -1 -53 11 0 14 -27 41 -42 42 -3 0 -9
-14 -13 -31 -4 -17 -12 -32 -18 -34 -7 -1 -73 -15 -148 -29 -120 -23 -303 -73
-224 -61 439 65 1074 73 1525 19 68 -8 136 -17 150 -20 18 -4 21 -3 10 4 -20
13 -217 58 -330 76 -49 8 -102 21 -117 30 l-28 14 28 13 c33 15 33 19 1 43
-19 13 -37 17 -63 13 -35 -4 -40 -1 -85 49 -53 60 -68 67 -57 27 5 -16 5 -37
0 -48 -13 -33 -10 -41 16 -53 15 -7 25 -20 25 -32 0 -18 -6 -20 -65 -20 l-65
0 0 30 c0 23 -7 33 -31 45 -28 15 -30 20 -29 63 3 73 2 78 -12 64 -14 -14 -28
-16 -28 -2 0 20 -42 120 -50 120 -5 0 -6 -33 -4 -72z"/>
<path d="M1500 955 c-7 -9 -19 -14 -27 -11 -7 3 -13 1 -13 -3 0 -5 14 -14 31
-20 39 -13 39 -13 39 -1 0 6 -7 10 -15 10 -18 0 -20 17 -2 23 6 2 9 7 6 11 -3
4 -12 -1 -19 -9z"/>
<path d="M288 949 c16 -18 15 -29 -3 -29 -8 0 -15 -4 -15 -10 0 -6 9 -6 25 0
17 6 25 6 25 -1 0 -6 5 -7 10 -4 13 8 -4 31 -34 47 -17 9 -19 8 -8 -3z"/>
<path d="M1474 836 c-8 -20 2 -46 17 -46 6 0 13 9 16 20 7 25 20 26 27 3 3
-11 4 -7 3 7 -2 19 -8 26 -30 28 -18 2 -29 -2 -33 -12z m26 -16 c0 -5 -4 -10
-10 -10 -5 0 -10 5 -10 10 0 6 5 10 10 10 6 0 10 -4 10 -10z"/>
<path d="M260 816 c0 -14 5 -26 10 -26 6 0 10 5 10 10 0 6 12 10 26 10 14 0
23 4 19 10 -3 5 -12 7 -20 3 -9 -3 -22 0 -30 7 -13 10 -15 8 -15 -14z"/>
<path d="M140 419 l0 -91 101 4 c86 2 103 6 115 22 19 26 18 32 -8 58 -14 14
-18 23 -10 26 16 5 15 45 0 60 -8 8 -46 12 -105 12 l-93 0 0 -91z m148 39 c3
-15 -4 -18 -42 -18 -32 0 -46 4 -46 13 0 22 12 28 50 25 24 -2 36 -9 38 -20z
m10 -70 c3 -15 -4 -18 -47 -18 -36 0 -51 4 -51 13 0 23 12 28 55 25 29 -2 41
-8 43 -20z"/>
<path d="M400 420 l0 -90 84 0 c116 0 136 9 136 59 0 50 -17 61 -94 61 -56 0
-56 0 -56 30 0 28 -3 30 -35 30 l-35 0 0 -90z m158 -27 c3 -21 -1 -23 -42 -23
-43 0 -46 2 -46 26 0 23 3 25 43 22 35 -2 43 -7 45 -25z"/>
<path d="M660 420 l0 -90 30 0 30 0 0 90 0 90 -30 0 -30 0 0 -90z"/>
<path d="M778 499 c-14 -8 -18 -24 -18 -79 0 -85 7 -90 119 -90 71 0 81 2 81
18 0 14 -7 17 -45 14 -25 -2 -57 -1 -71 2 -23 6 -25 10 -22 59 l3 52 68 3 c51
2 67 6 67 17 0 12 -17 15 -82 15 -46 0 -91 -5 -100 -11z"/>
<path d="M1002 498 c-7 -7 -12 -40 -12 -80 0 -82 7 -88 115 -88 109 0 115 5
115 94 0 58 -3 75 -16 80 -29 11 -189 7 -202 -6z m153 -78 c0 -53 -1 -55 -29
-58 -15 -2 -39 -1 -52 2 -21 6 -24 12 -24 55 0 26 3 51 7 55 4 4 28 6 53 4
l45 -3 0 -55z"/>
<path d="M1250 495 c0 -10 11 -15 35 -15 l34 0 3 -72 3 -73 30 0 30 0 3 73 3
72 34 0 c24 0 35 5 35 15 0 12 -18 15 -105 15 -87 0 -105 -3 -105 -15z"/>
<path d="M1487 420 l-48 -90 36 0 c22 0 38 6 41 15 4 11 21 15 59 15 38 0 55
-4 59 -15 7 -18 66 -21 65 -2 0 6 -19 46 -42 87 -41 72 -44 75 -82 78 l-40 2
-48 -90z m113 -12 c0 -4 -11 -8 -25 -8 -28 0 -30 3 -14 32 11 21 12 21 25 3 8
-10 14 -22 14 -27z"/>
</g>
</svg>
